<?xml version="1.0"?>
<svg xmlns="http://www.w3.org/2000/svg" xmlns:xlink="http://www.w3.org/1999/xlink" xmlns:svgjs="http://svgjs.com/svgjs" version="1.1" width="512" height="512" x="0" y="0" viewBox="0 0 511.99951 511" style="enable-background:new 0 0 512 512" xml:space="preserve" class=""><g transform="matrix(1,0,0,1,0,60)"><path xmlns="http://www.w3.org/2000/svg" d="m506.140625 195.109375c-21.984375-21.984375-46.363281-40.71875-72.808594-56.042969v-87.148437c0-8.089844-4.871093-15.382813-12.34375-18.476563-105.335937-43.632812-223.238281-44.210937-329.976562 0-7.472657 3.09375-12.34375 10.386719-12.34375 18.476563v87.148437c-26.445313 15.324219-50.824219 34.054688-72.808594 56.042969-6.089844 6.085937-7.597656 15.386719-3.746094 23.085937l78.664063 157.332032c4.695312 9.386718 15.847656 13.546875 25.542968 9.535156 96.703126-40.058594 203.640626-39.648438 299.359376 0 9.675781 4.003906 20.835937-.125 25.539062-9.535156l78.667969-157.332032c3.851562-7.699218 2.339843-16.996093-3.746094-23.085937zm-387.472656-129.589844c89.167969-33.53125 186.425781-33.160156 274.664062 0v53.65625c-85.6875-36.039062-184.8125-37.796875-274.664062 0zm284.929687 275.8125c-94.269531-34.441406-198.628906-35.304687-295.199218 0l-63.914063-127.832031c120.425781-110.140625 304.136719-108.742188 423.027344 0zm-88.265625-122.078125c0 11.042969-8.953125 20-20 20h-19.332031v19.332032c0 11.046874-8.953125 20-20 20s-20-8.953126-20-20v-19.332032h-19.332031c-11.046875 0-20-8.957031-20-20 0-11.046875 8.953125-20 20-20h19.332031v-19.335937c0-11.042969 8.953125-20 20-20s20 8.957031 20 20v19.335937h19.332031c11.046875 0 20 8.953125 20 20zm0 0" fill="#5f6062" data-original="#000000" style="" class=""/></g></svg>
